<svg xmlns="http://www.w3.org/2000/svg" width="320" height="320" viewBox="0 0 320 320" shape-rendering="crispEdges"><rect width="320" height="320" fill="none"/><rect x="140" y="60" width="20" height="20" fill="#07112d"/><rect x="160" y="60" width="20" height="20" fill="#07112d"/><rect x="140" y="80" width="20" height="20" fill="#07112d"/><rect x="160" y="80" width="20" height="20" fill="#07112d"/><rect x="100" y="100" width="20" height="20" fill="#17376f"/><rect x="120" y="100" width="20" height="20" fill="#07112d"/><rect x="140" y="100" width="20" height="20" fill="#dff7ff"/><rect x="160" y="100" width="20" height="20" fill="#dff7ff"/><rect x="180" y="100" width="20" height="20" fill="#07112d"/><rect x="120" y="120" width="20" height="20" fill="#07112d"/><rect x="140" y="120" width="20" height="20" fill="#55d7ff"/><rect x="160" y="120" width="20" height="20" fill="#dff7ff"/><rect x="180" y="120" width="20" height="20" fill="#07112d"/><rect x="100" y="140" width="20" height="20" fill="#07112d"/><rect x="120" y="140" width="20" height="20" fill="#2478a8"/><rect x="140" y="140" width="20" height="20" fill="#55d7ff"/><rect x="160" y="140" width="20" height="20" fill="#dff7ff"/><rect x="180" y="140" width="20" height="20" fill="#dff7ff"/><rect x="200" y="140" width="20" height="20" fill="#07112d"/><rect x="80" y="160" width="20" height="20" fill="#07112d"/><rect x="100" y="160" width="20" height="20" fill="#2478a8"/><rect x="120" y="160" width="20" height="20" fill="#2478a8"/><rect x="140" y="160" width="20" height="20" fill="#55d7ff"/><rect x="160" y="160" width="20" height="20" fill="#dff7ff"/><rect x="180" y="160" width="20" height="20" fill="#dff7ff"/><rect x="200" y="160" width="20" height="20" fill="#dff7ff"/><rect x="220" y="160" width="20" height="20" fill="#07112d"/><rect x="80" y="180" width="20" height="20" fill="#07112d"/><rect x="100" y="180" width="20" height="20" fill="#2478a8"/><rect x="120" y="180" width="20" height="20" fill="#2478a8"/><rect x="140" y="180" width="20" height="20" fill="#55d7ff"/><rect x="160" y="180" width="20" height="20" fill="#55d7ff"/><rect x="180" y="180" width="20" height="20" fill="#dff7ff"/><rect x="200" y="180" width="20" height="20" fill="#dff7ff"/><rect x="220" y="180" width="20" height="20" fill="#07112d"/><rect x="100" y="200" width="20" height="20" fill="#07112d"/><rect x="120" y="200" width="20" height="20" fill="#2478a8"/><rect x="140" y="200" width="20" height="20" fill="#55d7ff"/><rect x="160" y="200" width="20" height="20" fill="#55d7ff"/><rect x="180" y="200" width="20" height="20" fill="#55d7ff"/><rect x="200" y="200" width="20" height="20" fill="#07112d"/><rect x="100" y="220" width="20" height="20" fill="#07112d"/><rect x="120" y="220" width="20" height="20" fill="#2478a8"/><rect x="140" y="220" width="20" height="20" fill="#55d7ff"/><rect x="160" y="220" width="20" height="20" fill="#55d7ff"/><rect x="180" y="220" width="20" height="20" fill="#55d7ff"/><rect x="200" y="220" width="20" height="20" fill="#07112d"/><rect x="120" y="240" width="20" height="20" fill="#07112d"/><rect x="140" y="240" width="20" height="20" fill="#07112d"/><rect x="160" y="240" width="20" height="20" fill="#07112d"/><rect x="180" y="240" width="20" height="20" fill="#07112d"/></svg>
